# xmcd
#
# Track frame offsets:
#      182
#      25792
#      38845
#      52707
#      68177
#      86817
#      120725
#      143697
#      157657
#      190300
#      217972
#      240167
#      247025
# 
# Disc length: 3565 seconds
#
# Revision: 2
# Processed by: cddbd v1.4PL0 Copyright (c) Steve Scherf et al.
#
# Submitted via: FreeRIP 1.20
#
DISCID=a10deb0d
DTITLE=Carlton Pearson - Precious Memories
DYEAR=1997
DGENRE=Gospel
TTITLE0=Jesus, I'll never forget/He's done so much for me
TTITLE1=Father Along
TTITLE2=Mother Sherman Story
TTITLE3=We'll understand it better by and by
TTITLE4=This Train
TTITLE5=In the morning when I rise
TTITLE6=I know I've been changed
TTITLE7=Intro. to Donnie McClurkin
TTITLE8=Living, he loved me/Send it on down/Power Lord/Yes Lord
TTITLE9=Father, I strech my hands to thee
TTITLE10=Going to heaven to meet the king
TTITLE11=Intro. to Precious Memories
TTITLE12=Precious Memories
EXTD=Great selection of trad.Gospel
EXTT0=
EXTT1=
EXTT2=
EXTT3=
EXTT4=
EXTT5=
EXTT6=
EXTT7=
EXTT8=
EXTT9=
EXTT10=
EXTT11=
EXTT12=
PLAYORDER=
